<?xml version="1.0" encoding="UTF-8"?>
<svg id="Layer_1" xmlns="http://www.w3.org/2000/svg" viewBox="0 0 841.89 595.28">
  <defs>
    <style>
      .cls-1 {
        isolation: isolate;
      }

      .cls-2 {
        fill: #fff;
      }
    </style>
  </defs>
  <g class="cls-1">
    <g class="cls-1">
      <path class="cls-2" d="M123.74,349.42c-5.72,0-10.51-.98-14.36-2.93-3.86-1.96-6.99-4.59-9.4-7.9-2.41-3.31-4.24-7.09-5.49-11.36-1.26-4.26-2.13-8.67-2.63-13.24-.5-4.56-.75-9.1-.75-13.61v-12.48c0-2.31-.05-4.94-.15-7.9-.1-2.96-.18-6.42-.23-10.38-.05-3.96-.13-8.52-.23-13.69-.1-5.16-.15-11.1-.15-17.82v-3.23c0-1.15-.13-2.23-.38-3.23-.25-1-.68-1.83-1.28-2.48-.6-.65-1.56-.98-2.86-.98-2.01,0-4.19.25-6.54.75-2.36.5-4.79,1.03-7.3,1.58-2.51.55-4.99,1.08-7.45,1.58-2.46.5-4.79.75-6.99.75s-3.99-.85-5.64-2.56c-1.65-1.7-3.11-3.96-4.36-6.77-1.25-2.81-2.33-6.04-3.23-9.7-.9-3.66-1.63-7.45-2.18-11.36-.55-3.91-.95-7.77-1.2-11.58-.25-3.81-.38-7.32-.38-10.53,0-4.21.45-9,1.35-14.36.9-5.36,2.41-10.45,4.51-15.27,2.11-4.81,4.94-8.85,8.5-12.11,3.56-3.26,8-4.89,13.31-4.89h132.67c3.61,0,6.77.78,9.48,2.33,2.71,1.56,5.09,3.61,7.15,6.17,2.05,2.56,3.78,5.49,5.19,8.8,1.4,3.31,2.53,6.72,3.38,10.23.85,3.51,1.48,6.97,1.88,10.38.4,3.41.6,6.52.6,9.33,0,1.2-.15,3.31-.45,6.32-.3,3.01-.75,6.44-1.35,10.3-.6,3.86-1.35,7.87-2.26,12.03-.9,4.16-1.93,7.97-3.08,11.43-1.15,3.46-2.43,6.32-3.84,8.57-1.41,2.26-2.91,3.38-4.51,3.38-2.41,0-4.89-.25-7.45-.75-2.56-.5-5.11-1.03-7.67-1.58-2.56-.55-5.06-1.08-7.52-1.58-2.46-.5-4.79-.75-6.99-.75-1.3,0-2.38.33-3.23.98-.85.65-1.5,1.48-1.96,2.48-.45,1-.75,2.11-.9,3.31s-.23,2.31-.23,3.31c0,6.82.05,12.61.15,17.37.1,4.76.17,9,.23,12.71.05,3.71.12,7.12.23,10.23.1,3.11.15,6.47.15,10.08,0,3.81-.05,7.95-.15,12.41-.1,4.46-.45,8.95-1.05,13.46s-1.6,8.85-3.01,13.01c-1.41,4.16-3.36,7.85-5.87,11.06-2.51,3.21-5.72,5.79-9.63,7.75-3.91,1.96-8.72,2.93-14.44,2.93h-20.01Z"/>
    </g>
    <g class="cls-1">
      <path class="cls-2" d="M321.5,349.27c-15.14,0-28.3-2.56-39.48-7.67-11.18-5.11-20.43-12.06-27.75-20.83-7.32-8.77-12.76-19.08-16.32-30.91-3.56-11.83-5.34-24.52-5.34-38.05,0-9.83.7-19.58,2.11-29.26,1.4-9.68,3.61-18.88,6.62-27.6,3.01-8.72,6.84-16.82,11.51-24.29,4.66-7.47,10.3-13.94,16.92-19.4,6.62-5.46,14.24-9.75,22.86-12.86,8.62-3.11,18.35-4.66,29.18-4.66h8.72c10.83,0,20.56,1.58,29.18,4.74,8.62,3.16,16.24,7.52,22.86,13.09,6.62,5.57,12.26,12.16,16.92,19.78,4.66,7.62,8.5,15.87,11.51,24.74,3.01,8.87,5.21,18.18,6.62,27.9,1.4,9.73,2.11,19.5,2.11,29.33,0,8.52-.7,16.4-2.11,23.62-1.41,7.22-3.64,14.04-6.69,20.46-3.06,6.42-7.02,12.48-11.88,18.2-4.87,5.72-10.71,11.33-17.52,16.85-4.51,3.61-9.13,6.52-13.84,8.72-4.71,2.21-9.55,3.91-14.51,5.11-4.96,1.2-10.08,2.01-15.34,2.41-5.26.4-10.71.6-16.32.6ZM326.16,299.63c3.01,0,5.66-.98,7.97-2.93,2.31-1.96,4.26-4.49,5.87-7.6,1.6-3.11,2.96-6.59,4.06-10.45,1.1-3.86,1.96-7.72,2.56-11.58.6-3.86,1.03-7.49,1.28-10.91.25-3.41.38-6.17.38-8.27,0-3.31-.55-7.09-1.65-11.36-1.1-4.26-2.68-8.27-4.74-12.03-2.06-3.76-4.56-6.94-7.52-9.55-2.96-2.61-6.34-3.91-10.15-3.91s-6.99,1.3-9.55,3.91c-2.56,2.61-4.64,5.82-6.24,9.63-1.61,3.81-2.73,7.85-3.38,12.11-.65,4.26-.98,8.05-.98,11.36,0,2.21.1,5.02.3,8.42.2,3.41.6,7.05,1.2,10.9.6,3.86,1.4,7.7,2.41,11.51,1,3.81,2.33,7.27,3.99,10.38,1.65,3.11,3.63,5.62,5.94,7.52,2.31,1.91,5.06,2.86,8.27,2.86Z"/>
    </g>
    <g class="cls-1">
      <path class="cls-2" d="M473.42,349.42c-8.22,0-14.77-.78-19.63-2.33-4.87-1.55-8.62-3.91-11.28-7.07-2.66-3.16-4.51-7.17-5.57-12.03-1.05-4.86-1.83-10.6-2.33-17.22-.4-5.11-.8-10.83-1.2-17.15-.4-6.32-.78-12.99-1.13-20.01-.35-7.02-.63-14.31-.83-21.88-.2-7.57-.3-15.17-.3-22.79,0-10.93.12-21.83.38-32.71.25-10.88.78-21.79,1.58-32.72.3-4.11,1.38-7.97,3.23-11.58,1.85-3.61,4.49-6.77,7.9-9.48,3.41-2.71,7.57-4.84,12.48-6.39,4.91-1.55,10.53-2.33,16.85-2.33h41.97c9.72,0,18.7,1.58,26.92,4.74,8.22,3.16,15.69,7.57,22.41,13.24,6.72,5.67,12.63,12.41,17.75,20.23,5.11,7.82,9.4,16.42,12.86,25.8,3.46,9.38,6.07,19.38,7.82,30.01,1.75,10.63,2.63,21.56,2.63,32.79,0,13.34-1.83,25.47-5.49,36.4-3.66,10.93-9.05,20.28-16.17,28.05-7.12,7.77-15.92,13.79-26.4,18.05-10.48,4.26-22.59,6.39-36.33,6.39h-48.13ZM514.79,293.77c6.02,0,10.98-.7,14.89-2.11,3.91-1.4,6.99-3.38,9.25-5.94,2.26-2.56,3.84-5.66,4.74-9.33.9-3.66,1.35-7.8,1.35-12.41s-.4-9.18-1.2-13.99c-.8-4.81-2.31-9.2-4.51-13.16-2.21-3.96-5.24-7.22-9.1-9.78-3.86-2.56-8.9-3.84-15.12-3.84-8.22,0-12.33,4.56-12.33,13.69v32.19c0,2.61-.03,5.37-.08,8.27-.05,2.91.23,5.57.83,7.97.6,2.41,1.75,4.41,3.46,6.02,1.7,1.61,4.31,2.41,7.82,2.41Z"/>
      <path class="cls-2" d="M663.7,349.42c-8.22,0-14.77-.78-19.63-2.33-4.87-1.55-8.63-3.91-11.28-7.07-2.66-3.16-4.51-7.17-5.57-12.03-1.05-4.86-1.83-10.6-2.33-17.22-.4-5.11-.8-10.83-1.2-17.15-.4-6.32-.78-12.99-1.13-20.01-.35-7.02-.63-14.31-.83-21.88-.2-7.57-.3-15.17-.3-22.79,0-10.93.12-21.83.38-32.71.25-10.88.78-21.79,1.58-32.72.3-4.11,1.38-7.97,3.23-11.58,1.85-3.61,4.49-6.77,7.9-9.48,3.41-2.71,7.57-4.84,12.48-6.39,4.91-1.55,10.53-2.33,16.85-2.33h41.97c9.73,0,18.7,1.58,26.92,4.74,8.22,3.16,15.69,7.57,22.41,13.24,6.72,5.67,12.63,12.41,17.75,20.23,5.12,7.82,9.4,16.42,12.86,25.8,3.46,9.38,6.07,19.38,7.82,30.01,1.75,10.63,2.63,21.56,2.63,32.79,0,13.34-1.83,25.47-5.49,36.4-3.66,10.93-9.05,20.28-16.17,28.05-7.12,7.77-15.92,13.79-26.4,18.05-10.48,4.26-22.59,6.39-36.33,6.39h-48.13ZM705.06,293.77c6.02,0,10.98-.7,14.89-2.11,3.91-1.4,7-3.38,9.25-5.94,2.26-2.56,3.84-5.66,4.74-9.33.9-3.66,1.35-7.8,1.35-12.41s-.4-9.18-1.2-13.99c-.8-4.81-2.31-9.2-4.51-13.16-2.21-3.96-5.24-7.22-9.1-9.78-3.86-2.56-8.9-3.84-15.12-3.84-8.22,0-12.33,4.56-12.33,13.69v32.19c0,2.61-.03,5.37-.08,8.27-.05,2.91.23,5.57.83,7.97.6,2.41,1.75,4.41,3.46,6.02,1.7,1.61,4.31,2.41,7.82,2.41Z"/>
    </g>
  </g>
  <g class="cls-1">
    <path class="cls-2" d="M437.39,410.06c-.96,28.08-21.23,62.47-61.37,62.47-12.6,0-25.48-4.52-33.02-9.73l3.84-6.85c3.42,2.6,8.08,4.93,13.01,6.58,8.22-24.52,16.58-49.04,25.34-73.57h8.08c-9.32,25.07-17.95,50.41-25.89,75.48,3.15.55,6.44.96,9.59.96,33.15,0,51.78-31.1,52.61-55.48.96-28.08-15.48-38.63-33.43-39.18-10.41-.27-22.88,3.01-31.23,10l-3.56-7.12c10-7.53,25.75-10.55,35.34-10.14,23.43.96,41.78,16.3,40.69,46.58Z"/>
    <path class="cls-2" d="M518.76,371.98h-42.33c-4.25,12.6-8.9,26.58-13.43,40.69h30.41l-2.47,7.26h-30.28c-4.79,15.21-9.59,30.41-14.11,44.39h43.7l-2.47,7.26h-51.65c10.69-32.88,23.7-75.35,34.66-106.85h50.41l-2.47,7.26Z"/>
    <path class="cls-2" d="M505.74,445.81c0-8.22,4.38-17.54,9.32-22.19l6.99,3.97c-5.34,3.97-8.49,11.23-8.49,18.36,0,11.1,8.63,19.73,21.64,19.73,14.11,0,25.89-11.92,25.89-25.48,0-21.51-35.34-22.06-34.8-48.63.27-13.7,12.6-28.22,31.78-28.22s29.32,16.85,21.65,34.8h-8.22c6.99-16.17-1.64-27.81-14.25-27.81-13.29,0-22.6,9.73-22.88,20.69-.55,22.74,34.8,23.15,34.66,49.04-.14,16.58-14.25,32.88-34.39,32.88-17.54,0-28.91-11.51-28.91-27.12Z"/>
    <path class="cls-2" d="M577.39,471.57c10.69-32.88,23.7-75.35,34.66-106.85h8.08c-10.96,31.51-23.97,73.98-34.66,106.85h-8.08Z"/>
    <path class="cls-2" d="M703.28,418.55l-2.33,7.26h-9.32c-6.03,23.29-22.74,47.13-44.52,47.13-19.86,0-29.45-14.25-29.45-35.89,0-35.21,23.43-73.7,52.61-73.7,17.81,0,29.59,16.85,24.11,35.89h-8.36c4.52-15.62-3.7-28.22-16.3-28.22-24.11,0-43.98,34.25-43.98,66.17,0,16.85,6.71,28.22,21.78,28.22s30.55-19.32,36.17-39.59h-20.28l2.33-7.26h37.54Z"/>
    <path class="cls-2" d="M791.64,364.71c-11.51,35.34-23.7,70.96-34.8,106.85h-8.9c-4.11-30.69-8.08-63.43-11.78-94.25-10,30.82-20.14,63.56-29.73,94.25h-7.81c11.64-35.62,22.88-71.24,34.66-106.85h8.77c2.74,31.78,7.4,63.56,11.51,95.35,9.59-31.92,20.14-63.98,30-95.35h8.08Z"/>
  </g>
</svg>